<?xml version="1.0" encoding="UTF-8" standalone="no"?>
<!DOCTYPE svg PUBLIC "-//W3C//DTD SVG 20010904//EN"
              "http://www.w3.org/TR/2001/REC-SVG-20010904/DTD/svg10.dtd">

<svg xmlns="http://www.w3.org/2000/svg"
     width="2.22222in" height="3in"
     viewBox="0 0 200 270">
  <path id="Selection"
        fill="#E53935" stroke="#E53935" stroke-width="1"
        d="M 155.00,141.00
           C 152.85,138.85 148.45,135.02 147.99,132.00
             147.63,129.71 149.91,125.31 150.77,123.00
             152.56,118.18 153.87,112.14 153.99,107.00
             154.40,88.60 145.11,71.63 130.00,61.22
             125.20,57.91 118.70,54.95 113.00,53.66
             71.63,44.35 36.00,85.50 52.09,125.00
             60.60,145.88 83.55,160.08 106.00,157.83
             109.74,157.46 116.51,155.91 120.00,154.54
             122.41,153.59 126.62,150.97 129.00,151.23
             132.07,151.57 135.86,155.87 138.00,158.00
             141.32,161.30 157.97,177.43 159.27,180.00
             161.71,184.81 151.21,197.61 148.34,202.00
             148.34,202.00 116.67,251.00 116.67,251.00
             112.03,257.97 107.98,266.46 98.00,264.77
             91.12,263.60 86.02,253.52 82.33,248.00
             82.33,248.00 50.31,199.00 50.31,199.00
             50.31,199.00 27.31,164.00 27.31,164.00
             14.35,143.89 5.04,130.12 5.00,105.00
             4.98,91.19 5.02,81.40 9.69,68.00
             20.45,37.16 47.34,14.08 79.00,6.89
             88.41,4.75 96.48,4.89 106.00,5.00
             151.26,5.53 194.46,47.51 195.00,93.00
             195.19,109.94 195.10,120.81 188.55,137.00
             185.19,145.30 180.33,152.28 176.00,160.00
             169.57,156.96 160.38,146.39 155.00,141.00 Z
           M 121.00,75.96
           C 139.08,87.75 140.81,114.88 125.71,129.70
             118.47,136.81 109.84,139.11 100.00,139.00
             67.00,138.62 56.66,96.07 78.00,80.00
             78.00,80.00 101.00,103.00 101.00,103.00
             101.00,103.00 101.00,70.00 101.00,70.00
             108.15,70.33 114.94,72.01 121.00,75.96 Z" />
</svg>
